<?xml version="1.0" standalone="no"?>
<!DOCTYPE svg PUBLIC "-//W3C//DTD SVG 20010904//EN"
 "http://www.w3.org/TR/2001/REC-SVG-20010904/DTD/svg10.dtd">
<svg version="1.0" xmlns="http://www.w3.org/2000/svg"
 width="94.000000pt" height="94.000000pt" viewBox="0 0 94.000000 94.000000"
 preserveAspectRatio="xMidYMid meet">
<metadata>
Created by potrace 1.14, written by Peter Selinger 2001-2017
</metadata>
<g transform="translate(0.000000,94.000000) scale(0.100000,-0.100000)"
fill="#000000" stroke="none">
<path d="M126 930 c-2 -3 -3 -67 -3 -142 0 -127 1 -138 19 -144 11 -3 22 -3
26 0 3 4 6 57 6 119 0 62 3 114 7 117 6 4 550 5 584 1 11 -1 12 -528 0 -588
-24 -131 -154 -236 -289 -235 -167 1 -288 117 -301 289 -2 25 1 43 8 45 7 3
48 4 92 4 l80 -1 6 -38 c11 -72 39 -102 102 -112 44 -7 98 28 113 74 6 19 10
106 10 204 l-1 172 -113 1 -113 1 3 -26 c3 -26 4 -26 86 -26 76 1 82 -1 83
-20 3 -71 0 -269 -5 -288 -11 -46 -82 -53 -104 -10 -5 10 -10 34 -10 53 0 76
13 70 -147 70 l-145 0 4 -89 c3 -70 10 -102 31 -150 92 -204 359 -269 535
-130 52 41 102 117 122 184 10 37 20 616 10 656 -3 13 -44 15 -348 15 -190 0
-347 -3 -348 -6z"/>
<path d="M206 728 c2 -87 1 -85 27 -84 19 1 22 7 25 49 l3 47 184 0 184 0 -1
-209 c-1 -232 -5 -252 -64 -297 -88 -68 -213 -21 -243 92 -4 17 -15 28 -29 31
-55 8 -5 -122 66 -172 39 -27 52 -30 116 -30 64 0 78 4 114 29 26 18 51 47 67
79 25 50 25 54 25 289 l0 238 -238 0 -238 0 2 -62z"/>
</g>
</svg>
